<svg width="82" height="138" viewBox="0 0 82 138" fill="none" xmlns="http://www.w3.org/2000/svg">
<path d="M73.28 103.456C72.6091 117.108 62.2589 128.321 48.704 130.08C47.8811 130.151 47.0551 130.18 46.2293 130.165C35.7556 130.057 26.2559 123.999 21.7387 114.549C15.3387 101.749 8.93867 79.9893 8 44.064C26.7603 43.4714 44.9876 37.6812 60.6507 27.3387C63.3816 25.306 65.7476 22.8246 67.648 20C72.5503 47.5316 74.4388 75.5153 73.28 103.456Z" fill="#3F51B5"/>
<path d="M67.6479 20C65.7476 22.8246 63.3815 25.306 60.6506 27.3387C55.6546 30.9572 50.2031 33.901 44.4373 36.0939C47.7398 58.3858 48.826 80.95 47.6799 103.456C47.0554 113.128 41.6671 121.858 33.3013 126.752C37.2484 128.975 41.6991 130.15 46.2293 130.165C47.0551 130.18 47.8811 130.151 48.7039 130.08C62.2588 128.321 72.609 117.108 73.2799 103.456C74.4387 75.5153 72.5502 47.5316 67.6479 20Z" fill="#283593"/>
<path d="M73.28 103.456C72.6091 117.108 62.2589 128.321 48.704 130.08C47.8811 130.151 47.0551 130.18 46.2293 130.165C35.7556 130.057 26.2559 123.999 21.7387 114.549C15.3387 101.749 8.93867 79.9893 8 44.064C26.7603 43.4714 44.9876 37.6812 60.6507 27.3387C63.3816 25.306 65.7476 22.8246 67.648 20C72.5503 47.5316 74.4388 75.5153 73.28 103.456V103.456Z" stroke="black" stroke-width="15"/>
</svg>
