<svg width="186" height="119" viewBox="0 0 186 119" fill="none" xmlns="http://www.w3.org/2000/svg">
<path d="M178.045 64.8015C178.352 69.9297 177.507 75.0614 175.571 79.8201C174.725 82.1503 173.578 84.3594 172.157 86.3908C170.257 89.2153 167.891 91.6968 165.16 93.7295C149.497 104.072 131.27 109.862 112.509 110.455C106.536 110.967 100.136 111.223 93.0534 111.223C85.9707 111.223 79.5707 110.967 73.5974 110.455C54.8371 109.862 36.6098 104.072 20.9467 93.7295C18.2158 91.6968 15.8497 89.2153 13.9494 86.3908C12.529 84.3594 11.3814 82.1503 10.536 79.8201C8.60025 75.0614 7.75467 69.9297 8.06137 64.8015C8.80185 45.8475 12.3092 27.1035 18.472 9.16412C42.8328 15.3376 67.9334 18.0947 93.0534 17.3561C118.173 18.0947 143.274 15.3376 167.635 9.16412C173.798 27.1035 177.305 45.8475 178.045 64.8015Z" fill="#E91E63"/>
<path d="M167.635 9.16412C159.756 11.4092 151.729 13.0972 143.613 14.2158C148.747 30.6214 151.716 47.627 152.445 64.8015C152.752 69.9297 151.906 75.0614 149.971 79.8201C149.125 82.1503 147.978 84.3594 146.557 86.3908C144.657 89.2153 142.291 91.6968 139.56 93.7295C123.897 104.072 105.67 109.862 86.9093 110.455C84.776 110.634 82.5061 110.745 80.2533 110.864C84.3066 111.078 88.505 111.223 93.0533 111.223C100.136 111.223 106.536 110.967 112.509 110.455C131.27 109.862 149.497 104.072 165.16 93.7295C167.891 91.6968 170.257 89.2153 172.157 86.3908C173.578 84.3594 174.725 82.1503 175.571 79.8201C177.506 75.0614 178.352 69.9297 178.045 64.8015C177.305 45.8475 173.798 27.1035 167.635 9.16412Z" fill="#AD1457"/>
<path d="M178.045 64.8015C178.352 69.9297 177.507 75.0614 175.571 79.8201C174.725 82.1503 173.578 84.3594 172.157 86.3908C170.257 89.2154 167.891 91.6968 165.16 93.7295C149.497 104.072 131.27 109.862 112.509 110.455C106.536 110.967 100.136 111.223 93.0534 111.223C85.9707 111.223 79.5707 110.967 73.5974 110.455C54.8371 109.862 36.6098 104.072 20.9467 93.7295C18.2158 91.6968 15.8497 89.2154 13.9494 86.3908C12.529 84.3594 11.3814 82.1503 10.536 79.8201C8.60025 75.0614 7.75467 69.9297 8.06137 64.8015C8.80185 45.8475 12.3092 27.1035 18.472 9.16412C42.8328 15.3376 67.9334 18.0947 93.0534 17.3561C118.173 18.0947 143.274 15.3376 167.635 9.16412C173.798 27.1035 177.305 45.8475 178.045 64.8015Z" stroke="black" stroke-width="15"/>
<path d="M101.587 60.0228H84.52C79.8072 60.0228 75.9867 63.8433 75.9867 68.5561C75.9867 73.269 79.8072 77.0895 84.52 77.0895H101.587C106.3 77.0895 110.12 73.269 110.12 68.5561C110.12 63.8433 106.3 60.0228 101.587 60.0228Z" fill="black"/>
</svg>
