<svg width="697" height="133" viewBox="0 0 697 133" fill="none" xmlns="http://www.w3.org/2000/svg">
<path d="M86.3047 103H61.7656V60.25H25.4141V103H0.734375V0.625H25.4141V41.2656H61.7656V0.625H86.3047V103ZM158.15 103C157.306 101.453 156.556 99.1797 155.9 96.1797C151.541 101.664 145.447 104.406 137.619 104.406C130.447 104.406 124.353 102.25 119.338 97.9375C114.322 93.5781 111.814 88.1172 111.814 81.5547C111.814 73.3047 114.861 67.0703 120.955 62.8516C127.048 58.6328 135.908 56.5234 147.533 56.5234H154.845V52.5156C154.845 45.5312 151.822 42.0391 145.775 42.0391C140.15 42.0391 137.338 44.8047 137.338 50.3359H113.642C113.642 42.9766 116.759 37 122.994 32.4062C129.275 27.8125 137.267 25.5156 146.97 25.5156C156.673 25.5156 164.338 27.8828 169.963 32.6172C175.588 37.3516 178.47 43.8438 178.611 52.0938V85.7734C178.705 92.7578 179.783 98.1016 181.845 101.805V103H158.15ZM143.314 87.5312C146.267 87.5312 148.705 86.8984 150.627 85.6328C152.595 84.3672 154.002 82.9375 154.845 81.3438V69.1797H147.955C139.705 69.1797 135.58 72.8828 135.58 80.2891C135.58 82.4453 136.306 84.2031 137.759 85.5625C139.213 86.875 141.064 87.5312 143.314 87.5312ZM227.956 26.9219L228.73 35.8516C233.98 28.9609 241.222 25.5156 250.456 25.5156C258.378 25.5156 264.284 27.8828 268.175 32.6172C272.113 37.3516 274.152 44.4766 274.292 53.9922V103H250.527V54.9766C250.527 51.1328 249.753 48.3203 248.206 46.5391C246.659 44.7109 243.847 43.7969 239.769 43.7969C235.128 43.7969 231.683 45.625 229.433 49.2812V103H205.738V26.9219H227.956ZM299.098 64.3984C299.098 56.7109 300.364 49.9141 302.895 44.0078C305.427 38.1016 309.059 33.5547 313.794 30.3672C318.528 27.1328 324.036 25.5156 330.317 25.5156C338.239 25.5156 344.427 28.1875 348.88 33.5312L349.723 26.9219H371.239V100.117C371.239 106.82 369.669 112.633 366.528 117.555C363.434 122.523 358.934 126.32 353.028 128.945C347.122 131.617 340.278 132.953 332.497 132.953C326.919 132.953 321.505 131.898 316.255 129.789C311.052 127.68 307.067 124.938 304.302 121.562L314.216 107.641C318.622 112.844 324.434 115.445 331.653 115.445C342.153 115.445 347.403 110.055 347.403 99.2734V96.8828C342.856 101.898 337.114 104.406 330.177 104.406C320.895 104.406 313.395 100.867 307.677 93.7891C301.958 86.6641 299.098 77.1484 299.098 65.2422V64.3984ZM322.864 65.875C322.864 72.1094 324.036 77.0547 326.38 80.7109C328.723 84.3203 332.005 86.125 336.223 86.125C341.333 86.125 345.059 84.4141 347.403 80.9922V49C345.106 45.5312 341.427 43.7969 336.364 43.7969C332.145 43.7969 328.841 45.6953 326.45 49.4922C324.059 53.2422 322.864 58.7031 322.864 65.875ZM421.498 26.9219L422.272 35.8516C427.663 28.9609 434.905 25.5156 443.998 25.5156C453.608 25.5156 460.1 29.3359 463.475 36.9766C468.631 29.3359 476.084 25.5156 485.834 25.5156C501.256 25.5156 509.178 34.8438 509.6 53.5V103H485.834V54.9766C485.834 51.0859 485.178 48.25 483.866 46.4688C482.553 44.6875 480.163 43.7969 476.694 43.7969C472.006 43.7969 468.514 45.8828 466.217 50.0547L466.288 51.0391V103H442.522V55.1172C442.522 51.1328 441.889 48.25 440.623 46.4688C439.358 44.6875 436.944 43.7969 433.381 43.7969C428.834 43.7969 425.366 45.8828 422.975 50.0547V103H399.28V26.9219H421.498ZM580.391 103C579.547 101.453 578.797 99.1797 578.141 96.1797C573.781 101.664 567.688 104.406 559.859 104.406C552.688 104.406 546.594 102.25 541.578 97.9375C536.562 93.5781 534.055 88.1172 534.055 81.5547C534.055 73.3047 537.102 67.0703 543.195 62.8516C549.289 58.6328 558.148 56.5234 569.773 56.5234H577.086V52.5156C577.086 45.5312 574.062 42.0391 568.016 42.0391C562.391 42.0391 559.578 44.8047 559.578 50.3359H535.883C535.883 42.9766 539 37 545.234 32.4062C551.516 27.8125 559.508 25.5156 569.211 25.5156C578.914 25.5156 586.578 27.8828 592.203 32.6172C597.828 37.3516 600.711 43.8438 600.852 52.0938V85.7734C600.945 92.7578 602.023 98.1016 604.086 101.805V103H580.391ZM565.555 87.5312C568.508 87.5312 570.945 86.8984 572.867 85.6328C574.836 84.3672 576.242 82.9375 577.086 81.3438V69.1797H570.195C561.945 69.1797 557.82 72.8828 557.82 80.2891C557.82 82.4453 558.547 84.2031 560 85.5625C561.453 86.875 563.305 87.5312 565.555 87.5312ZM650.197 26.9219L650.97 35.8516C656.22 28.9609 663.463 25.5156 672.697 25.5156C680.619 25.5156 686.525 27.8828 690.416 32.6172C694.353 37.3516 696.392 44.4766 696.533 53.9922V103H672.767V54.9766C672.767 51.1328 671.994 48.3203 670.447 46.5391C668.9 44.7109 666.088 43.7969 662.009 43.7969C657.369 43.7969 653.923 45.625 651.673 49.2812V103H627.978V26.9219H650.197Z" fill="#E91E63"/>
<path d="M86.3047 103V113C91.8275 113 96.3047 108.523 96.3047 103H86.3047ZM61.7656 103H51.7656C51.7656 108.523 56.2428 113 61.7656 113V103ZM61.7656 60.25H71.7656C71.7656 54.7271 67.2885 50.25 61.7656 50.25V60.25ZM25.4141 60.25V50.25C19.8912 50.25 15.4141 54.7271 15.4141 60.25H25.4141ZM25.4141 103V113C30.9369 113 35.4141 108.523 35.4141 103H25.4141ZM0.734375 103H-9.26562C-9.26562 108.523 -4.78847 113 0.734375 113V103ZM0.734375 0.625V-9.375C-4.78847 -9.375 -9.26562 -4.89785 -9.26562 0.625H0.734375ZM25.4141 0.625H35.4141C35.4141 -4.89785 30.9369 -9.375 25.4141 -9.375V0.625ZM25.4141 41.2656H15.4141C15.4141 46.7885 19.8912 51.2656 25.4141 51.2656V41.2656ZM61.7656 41.2656V51.2656C67.2885 51.2656 71.7656 46.7885 71.7656 41.2656H61.7656ZM61.7656 0.625V-9.375C56.2428 -9.375 51.7656 -4.89785 51.7656 0.625H61.7656ZM86.3047 0.625H96.3047C96.3047 -4.89785 91.8275 -9.375 86.3047 -9.375V0.625ZM86.3047 93H61.7656V113H86.3047V93ZM71.7656 103V60.25H51.7656V103H71.7656ZM61.7656 50.25H25.4141V70.25H61.7656V50.25ZM15.4141 60.25V103H35.4141V60.25H15.4141ZM25.4141 93H0.734375V113H25.4141V93ZM10.7344 103V0.625H-9.26562V103H10.7344ZM0.734375 10.625H25.4141V-9.375H0.734375V10.625ZM15.4141 0.625V41.2656H35.4141V0.625H15.4141ZM25.4141 51.2656H61.7656V31.2656H25.4141V51.2656ZM71.7656 41.2656V0.625H51.7656V41.2656H71.7656ZM61.7656 10.625H86.3047V-9.375H61.7656V10.625ZM76.3047 0.625V103H96.3047V0.625H76.3047ZM158.15 103L149.371 107.789C151.123 111.001 154.491 113 158.15 113V103ZM155.9 96.1797L165.669 94.0427C164.844 90.2714 161.922 87.3118 158.162 86.4388C154.401 85.5657 150.474 86.9352 148.072 89.9572L155.9 96.1797ZM119.338 97.9375L112.777 105.485C112.791 105.497 112.804 105.508 112.818 105.52L119.338 97.9375ZM120.955 62.8516L115.263 54.6296L120.955 62.8516ZM154.845 56.5234V66.5234C160.368 66.5234 164.845 62.0463 164.845 56.5234H154.845ZM137.337 50.3359V60.3359C142.86 60.3359 147.337 55.8588 147.337 50.3359H137.337ZM113.642 50.3359H103.642C103.642 55.8588 108.119 60.3359 113.642 60.3359V50.3359ZM122.994 32.4062L117.091 24.3345C117.081 24.3416 117.071 24.3486 117.062 24.3557L122.994 32.4062ZM178.611 52.0938H188.611C188.611 52.0369 188.61 51.9801 188.609 51.9233L178.611 52.0938ZM178.611 85.7734H168.611C168.611 85.8182 168.611 85.8629 168.612 85.9077L178.611 85.7734ZM181.845 101.805H191.845C191.845 100.102 191.41 98.4267 190.582 96.9389L181.845 101.805ZM181.845 103V113C187.368 113 191.845 108.523 191.845 103H181.845ZM150.627 85.6328L145.219 77.221C145.188 77.2409 145.157 77.2609 145.127 77.2811L150.627 85.6328ZM154.845 81.3438L163.683 86.0226C164.446 84.5811 164.845 82.9748 164.845 81.3438H154.845ZM154.845 69.1797H164.845C164.845 63.6568 160.368 59.1797 154.845 59.1797V69.1797ZM137.759 85.5625L130.928 92.8652C130.97 92.905 131.013 92.9445 131.057 92.9835L137.759 85.5625ZM166.929 98.2115C166.755 97.8926 166.249 96.6944 165.669 94.0427L146.131 98.3167C146.863 101.665 147.857 105.014 149.371 107.789L166.929 98.2115ZM148.072 89.9572C145.849 92.7536 142.805 94.4062 137.619 94.4062V114.406C148.089 114.406 157.232 110.574 163.728 102.402L148.072 89.9572ZM137.619 94.4062C132.622 94.4062 128.9 92.9716 125.857 90.3549L112.818 105.52C119.806 111.528 128.272 114.406 137.619 114.406V94.4062ZM125.898 90.3899C123.035 87.9023 121.814 85.1802 121.814 81.5547H101.814C101.814 91.0542 105.608 99.254 112.777 105.485L125.898 90.3899ZM121.814 81.5547C121.814 76.1528 123.589 73.1906 126.647 71.0735L115.263 54.6296C106.133 60.95 101.814 70.4566 101.814 81.5547H121.814ZM126.647 71.0735C130.364 68.5003 136.872 66.5234 147.533 66.5234V46.5234C134.944 46.5234 123.733 48.7653 115.263 54.6296L126.647 71.0735ZM147.533 66.5234H154.845V46.5234H147.533V66.5234ZM164.845 56.5234V52.5156H144.845V56.5234H164.845ZM164.845 52.5156C164.845 47.807 163.857 42.4085 160.138 38.1128C156.18 33.5414 150.746 32.0391 145.775 32.0391V52.0391C146.347 52.0391 146.405 52.1241 146.15 52.0261C146.016 51.9745 145.824 51.8825 145.606 51.7315C145.386 51.5791 145.186 51.398 145.018 51.2036C144.67 50.8024 144.622 50.5381 144.671 50.7049C144.727 50.9017 144.845 51.4586 144.845 52.5156H164.845ZM145.775 32.0391C141.463 32.0391 136.384 33.1004 132.435 36.983C128.456 40.8962 127.337 45.9859 127.337 50.3359H147.337C147.337 49.7713 147.413 49.6887 147.336 49.9165C147.241 50.1944 146.989 50.7221 146.458 51.2435C145.932 51.7615 145.423 51.9866 145.198 52.0602C145.021 52.1184 145.158 52.0391 145.775 52.0391V32.0391ZM137.337 40.3359H113.642V60.3359H137.337V40.3359ZM123.642 50.3359C123.642 46.3438 125.093 43.2812 128.926 40.4568L117.062 24.3557C108.426 30.7188 103.642 39.6094 103.642 50.3359H123.642ZM128.897 40.478C133.081 37.4179 138.859 35.5156 146.97 35.5156V15.5156C135.675 15.5156 125.469 18.2071 117.091 24.3345L128.897 40.478ZM146.97 35.5156C155.079 35.5156 160.209 37.4782 163.523 40.268L176.402 24.9664C168.466 18.2874 158.268 15.5156 146.97 15.5156V35.5156ZM163.523 40.268C166.651 42.9005 168.514 46.5099 168.612 52.2642L188.609 51.9233C188.426 41.1776 184.524 31.8026 176.402 24.9664L163.523 40.268ZM168.611 52.0938V85.7734H188.611V52.0938H168.611ZM168.612 85.9077C168.715 93.5978 169.878 100.869 173.109 106.671L190.582 96.9389C189.688 95.3343 188.694 91.9179 188.61 85.6392L168.612 85.9077ZM171.845 101.805V103H191.845V101.805H171.845ZM181.845 93H158.15V113H181.845V93ZM143.314 97.5312C147.673 97.5312 152.167 96.5922 156.126 93.9845L145.127 77.2811C145.243 77.2047 144.861 77.5312 143.314 77.5312V97.5312ZM156.034 94.0446C159.029 92.1194 161.831 89.5214 163.683 86.0226L146.007 76.6649C146.172 76.3536 146.162 76.615 145.219 77.221L156.034 94.0446ZM164.845 81.3438V69.1797H144.845V81.3438H164.845ZM154.845 59.1797H147.955V79.1797H154.845V59.1797ZM147.955 59.1797C142.539 59.1797 136.609 60.3719 131.993 64.5157C127.172 68.8437 125.58 74.7489 125.58 80.2891H145.58C145.58 79.3404 145.715 78.945 145.728 78.9096C145.731 78.8995 145.707 78.9663 145.634 79.076C145.559 79.1882 145.462 79.3012 145.354 79.3984C145.12 79.6081 145.042 79.5637 145.407 79.4543C145.808 79.3344 146.608 79.1797 147.955 79.1797V59.1797ZM125.58 80.2891C125.58 84.955 127.272 89.4456 130.928 92.8652L144.591 78.2598C144.858 78.5096 145.159 78.903 145.366 79.4047C145.566 79.8884 145.58 80.2308 145.58 80.2891H125.58ZM131.057 92.9835C134.621 96.2026 138.982 97.5312 143.314 97.5312V77.5312C143.164 77.5312 143.288 77.5106 143.579 77.6136C143.891 77.7241 144.208 77.9117 144.462 78.1415L131.057 92.9835ZM227.956 26.9219L237.919 26.059C237.471 20.8899 233.145 16.9219 227.956 16.9219V26.9219ZM228.73 35.8516L218.767 36.7145C219.124 40.8311 221.975 44.3044 225.944 45.4556C229.912 46.6068 234.18 45.1987 236.684 41.912L228.73 35.8516ZM268.175 32.6172L260.449 38.9662C260.462 38.9814 260.474 38.9965 260.487 39.0115L268.175 32.6172ZM274.292 53.9922H284.292C284.292 53.9429 284.292 53.8937 284.291 53.8444L274.292 53.9922ZM274.292 103V113C279.815 113 284.292 108.523 284.292 103H274.292ZM250.527 103H240.527C240.527 108.523 245.004 113 250.527 113V103ZM248.206 46.5391L240.572 52.9985C240.6 53.0311 240.628 53.0636 240.656 53.0959L248.206 46.5391ZM229.433 49.2812L220.916 44.0403C219.946 45.6164 219.433 47.4306 219.433 49.2812H229.433ZM229.433 103V113C234.956 113 239.433 108.523 239.433 103H229.433ZM205.738 103H195.738C195.738 108.523 200.215 113 205.738 113V103ZM205.738 26.9219V16.9219C200.215 16.9219 195.738 21.399 195.738 26.9219H205.738ZM217.994 27.7848L218.767 36.7145L238.692 34.9887L237.919 26.059L217.994 27.7848ZM236.684 41.912C239.902 37.6881 244.104 35.5156 250.456 35.5156V15.5156C238.34 15.5156 228.057 20.2338 220.775 29.7911L236.684 41.912ZM250.456 35.5156C256.331 35.5156 258.986 37.1857 260.449 38.9662L275.901 26.2682C269.583 18.5799 260.425 15.5156 250.456 15.5156V35.5156ZM260.487 39.0115C262.353 41.2562 264.169 45.7282 264.293 54.14L284.291 53.8444C284.134 43.2249 281.872 33.4469 275.863 26.2228L260.487 39.0115ZM264.292 53.9922V103H284.292V53.9922H264.292ZM274.292 93H250.527V113H274.292V93ZM260.527 103V54.9766H240.527V103H260.527ZM260.527 54.9766C260.527 50.1425 259.615 44.4254 255.757 39.9822L240.656 53.0959C240.245 52.6228 240.223 52.3383 240.304 52.6359C240.392 52.9548 240.527 53.6846 240.527 54.9766H260.527ZM255.84 40.0796C251.404 34.8365 244.8 33.7969 239.769 33.7969V53.7969C240.422 53.7969 240.917 53.8339 241.275 53.8814C241.635 53.9292 241.811 53.9815 241.846 53.9928C241.878 54.0031 241.732 53.9599 241.484 53.804C241.226 53.6418 240.896 53.3811 240.572 52.9985L255.84 40.0796ZM239.769 33.7969C231.994 33.7969 225.157 37.1494 220.916 44.0403L237.949 54.5222C238.108 54.2651 238.226 54.138 238.281 54.085C238.332 54.036 238.363 54.0164 238.391 54.0015C238.42 53.9863 238.773 53.7969 239.769 53.7969V33.7969ZM219.433 49.2812V103H239.433V49.2812H219.433ZM229.433 93H205.738V113H229.433V93ZM215.738 103V26.9219H195.738V103H215.738ZM205.738 36.9219H227.956V16.9219H205.738V36.9219ZM313.794 30.3672L319.379 38.6623C319.397 38.6497 319.416 38.637 319.435 38.6243L313.794 30.3672ZM348.88 33.5312L341.197 39.9331C343.745 42.9896 347.861 44.2454 351.681 43.131C355.5 42.0166 358.295 38.7442 358.799 34.7976L348.88 33.5312ZM349.723 26.9219V16.9219C344.69 16.9219 340.441 20.6628 339.804 25.6556L349.723 26.9219ZM371.239 26.9219H381.239C381.239 21.399 376.762 16.9219 371.239 16.9219V26.9219ZM366.528 117.555L358.098 112.176C358.078 112.207 358.059 112.238 358.039 112.269L366.528 117.555ZM353.028 128.945L348.967 119.807C348.947 119.816 348.927 119.825 348.906 119.834L353.028 128.945ZM316.255 129.789L312.498 139.056C312.507 139.06 312.517 139.064 312.527 139.068L316.255 129.789ZM304.302 121.562L296.156 115.762C293.538 119.437 293.707 124.411 296.567 127.901L304.302 121.562ZM314.216 107.641L321.847 101.178C319.852 98.8224 316.881 97.52 313.797 97.6494C310.712 97.7788 307.861 99.3254 306.07 101.84L314.216 107.641ZM347.403 96.8828H357.403C357.403 92.7489 354.859 89.0411 351.003 87.5531C347.146 86.0651 342.771 87.1037 339.994 90.1664L347.403 96.8828ZM307.677 93.7891L299.878 100.049C299.885 100.057 299.891 100.065 299.898 100.074L307.677 93.7891ZM326.38 80.7109L317.961 86.1076C317.971 86.1241 317.982 86.1406 317.993 86.157L326.38 80.7109ZM347.403 80.9922L355.653 86.6431C356.793 84.979 357.403 83.0092 357.403 80.9922H347.403ZM347.403 49H357.403C357.403 47.0364 356.825 45.1162 355.741 43.479L347.403 49ZM326.45 49.4922L334.882 54.8678C334.892 54.852 334.902 54.8362 334.912 54.8203L326.45 49.4922ZM309.098 64.3984C309.098 57.8043 310.183 52.3892 312.087 47.947L293.704 40.0686C290.545 47.4389 289.098 55.6175 289.098 64.3984H309.098ZM312.087 47.947C313.958 43.5799 316.436 40.6436 319.379 38.6623L308.209 22.072C301.683 26.4657 296.895 32.6232 293.704 40.0686L312.087 47.947ZM319.435 38.6243C322.349 36.6337 325.848 35.5156 330.317 35.5156V15.5156C322.224 15.5156 314.708 17.632 308.153 22.1101L319.435 38.6243ZM330.317 35.5156C335.733 35.5156 338.921 37.2019 341.197 39.9331L356.562 27.1294C349.932 19.1731 340.745 15.5156 330.317 15.5156V35.5156ZM358.799 34.7976L359.643 28.1882L339.804 25.6556L338.96 32.2649L358.799 34.7976ZM349.723 36.9219H371.239V16.9219H349.723V36.9219ZM361.239 26.9219V100.117H381.239V26.9219H361.239ZM361.239 100.117C361.239 105.203 360.068 109.088 358.098 112.176L374.958 122.934C379.269 116.178 381.239 108.437 381.239 100.117H361.239ZM358.039 112.269C356.112 115.364 353.244 117.906 348.967 119.807L357.09 138.083C364.625 134.734 370.757 129.683 375.017 122.84L358.039 112.269ZM348.906 119.834C344.528 121.815 339.137 122.953 332.497 122.953V142.953C341.42 142.953 349.716 141.419 357.15 138.056L348.906 119.834ZM332.497 122.953C328.215 122.953 324.065 122.15 319.983 120.51L312.527 139.068C318.944 141.647 325.623 142.953 332.497 142.953V122.953ZM320.012 120.522C315.926 118.865 313.481 116.987 312.036 115.224L296.567 127.901C300.654 132.888 306.177 136.494 312.498 139.056L320.012 120.522ZM312.447 127.363L322.361 113.441L306.07 101.84L296.156 115.762L312.447 127.363ZM306.584 114.103C313.014 121.696 321.691 125.445 331.653 125.445V105.445C327.177 105.445 324.229 103.991 321.847 101.178L306.584 114.103ZM331.653 125.445C338.513 125.445 345.478 123.668 350.63 118.379C355.733 113.139 357.403 106.14 357.403 99.2734H337.403C337.403 103.188 336.448 104.275 336.302 104.425C336.203 104.527 335.294 105.445 331.653 105.445V125.445ZM357.403 99.2734V96.8828H337.403V99.2734H357.403ZM339.994 90.1664C337.396 93.0328 334.371 94.4062 330.177 94.4062V114.406C339.857 114.406 348.317 110.764 354.812 103.599L339.994 90.1664ZM330.177 94.4062C323.846 94.4062 319.232 92.1788 315.455 87.5045L299.898 100.074C307.559 109.556 317.944 114.406 330.177 114.406V94.4062ZM315.475 87.5296C311.564 82.656 309.098 75.5689 309.098 65.2422H289.098C289.098 78.728 292.352 90.6722 299.878 100.049L315.475 87.5296ZM309.098 65.2422V64.3984H289.098V65.2422H309.098ZM312.864 65.875C312.864 73.2306 314.227 80.2834 317.961 86.1076L334.798 75.3143C333.844 73.826 332.864 70.9882 332.864 65.875H312.864ZM317.993 86.157C322.136 92.5374 328.537 96.125 336.223 96.125V76.125C335.884 76.125 335.678 76.089 335.575 76.0641C335.477 76.0406 335.435 76.0187 335.418 76.0093C335.4 75.9996 335.344 75.9675 335.248 75.8747C335.147 75.7777 334.979 75.592 334.767 75.2649L317.993 86.157ZM336.223 96.125C343.765 96.125 351.004 93.4316 355.653 86.6431L339.153 75.3413C338.992 75.5766 338.876 75.6629 338.678 75.7539C338.404 75.8795 337.682 76.125 336.223 76.125V96.125ZM357.403 80.9922V49H337.403V80.9922H357.403ZM355.741 43.479C351.175 36.5834 343.948 33.7969 336.364 33.7969V53.7969C337.772 53.7969 338.436 54.0388 338.657 54.1432C338.803 54.212 338.903 54.2756 339.065 54.521L355.741 43.479ZM336.364 33.7969C328.454 33.7969 322.069 37.6819 317.988 44.1641L334.912 54.8203C335.392 54.0588 335.698 53.8947 335.703 53.8918C335.721 53.8814 335.749 53.8662 335.818 53.8489C335.892 53.8302 336.063 53.7969 336.364 53.7969V33.7969ZM318.018 44.1166C314.154 50.1781 312.864 57.8571 312.864 65.875H332.864C332.864 59.5491 333.965 56.3063 334.882 54.8678L318.018 44.1166ZM421.498 26.9219L431.461 26.059C431.013 20.8899 426.687 16.9219 421.498 16.9219V26.9219ZM422.272 35.8516L412.309 36.7145C412.664 40.8078 415.486 44.2677 419.424 45.4376C423.363 46.6075 427.616 45.2493 430.148 42.0132L422.272 35.8516ZM463.475 36.9766L454.328 41.0171C455.798 44.3467 458.962 46.6141 462.588 46.9371C466.213 47.2601 469.728 45.5876 471.764 42.5704L463.475 36.9766ZM509.6 53.5H519.6C519.6 53.4246 519.599 53.3493 519.597 53.2739L509.6 53.5ZM509.6 103V113C515.123 113 519.6 108.523 519.6 103H509.6ZM485.834 103H475.834C475.834 108.523 480.312 113 485.834 113V103ZM466.217 50.0547L457.457 45.2317C456.527 46.9212 456.105 48.8435 456.243 50.7672L466.217 50.0547ZM466.288 51.0391H476.288C476.288 50.8013 476.279 50.5637 476.262 50.3266L466.288 51.0391ZM466.288 103V113C471.81 113 476.288 108.523 476.288 103H466.288ZM442.522 103H432.522C432.522 108.523 436.999 113 442.522 113V103ZM422.975 50.0547L414.299 45.0828C413.431 46.5963 412.975 48.3103 412.975 50.0547H422.975ZM422.975 103V113C428.498 113 432.975 108.523 432.975 103H422.975ZM399.28 103H389.28C389.28 108.523 393.757 113 399.28 113V103ZM399.28 26.9219V16.9219C393.757 16.9219 389.28 21.399 389.28 26.9219H399.28ZM411.536 27.7848L412.309 36.7145L432.235 34.9887L431.461 26.059L411.536 27.7848ZM430.148 42.0132C433.558 37.6543 437.84 35.5156 443.998 35.5156V15.5156C431.97 15.5156 421.767 20.2676 414.396 29.6899L430.148 42.0132ZM443.998 35.5156C447.503 35.5156 449.663 36.2109 451.003 36.9994C452.249 37.7328 453.39 38.8934 454.328 41.0171L472.622 32.936C470.185 27.4191 466.392 22.8492 461.146 19.7623C455.994 16.7305 450.103 15.5156 443.998 15.5156V35.5156ZM471.764 42.5704C474.937 37.8688 479.18 35.5156 485.834 35.5156V15.5156C472.989 15.5156 462.326 20.8031 455.186 31.3827L471.764 42.5704ZM485.834 35.5156C491.436 35.5156 494.136 37.1194 495.72 38.9849C497.593 41.1903 499.418 45.5437 499.603 53.7261L519.597 53.2739C519.361 42.8001 517.013 33.1612 510.964 26.0386C504.627 18.5759 495.654 15.5156 485.834 15.5156V35.5156ZM499.6 53.5V103H519.6V53.5H499.6ZM509.6 93H485.834V113H509.6V93ZM495.834 103V54.9766H475.834V103H495.834ZM495.834 54.9766C495.834 50.3875 495.141 44.9139 491.916 40.5368L475.815 52.4007C475.451 51.9061 475.487 51.6976 475.6 52.1861C475.711 52.6652 475.834 53.5535 475.834 54.9766H495.834ZM491.916 40.5368C487.843 35.0093 481.498 33.7969 476.694 33.7969V53.7969C477.637 53.7969 477.841 53.9264 477.597 53.8357C477.452 53.7816 477.171 53.6569 476.828 53.4093C476.476 53.1556 476.122 52.8175 475.815 52.4007L491.916 40.5368ZM476.694 33.7969C472.824 33.7969 468.951 34.6737 465.431 36.7762C461.919 38.8739 459.314 41.8597 457.457 45.2317L474.977 54.8777C475.205 54.4639 475.392 54.2291 475.505 54.1077C475.611 53.9924 475.672 53.9555 475.687 53.9464C475.702 53.9377 475.75 53.9094 475.873 53.8779C476.005 53.8443 476.265 53.7969 476.694 53.7969V33.7969ZM456.243 50.7672L456.313 51.7515L476.262 50.3266L476.192 49.3422L456.243 50.7672ZM456.288 51.0391V103H476.288V51.0391H456.288ZM466.288 93H442.522V113H466.288V93ZM452.522 103V55.1172H432.522V103H452.522ZM452.522 55.1172C452.522 50.5426 451.885 45.0533 448.775 40.6767L432.472 52.2608C432.105 51.7447 432.156 51.5481 432.28 52.1109C432.399 52.6522 432.522 53.6132 432.522 55.1172H452.522ZM448.775 40.6767C444.694 34.9332 438.12 33.7969 433.381 33.7969V53.7969C434.403 53.7969 434.64 53.9343 434.402 53.8467C434.257 53.793 433.955 53.6617 433.583 53.3916C433.201 53.1138 432.809 52.7361 432.472 52.2608L448.775 40.6767ZM433.381 33.7969C425.004 33.7969 418.345 38.0206 414.299 45.0828L431.651 55.0266C432.158 54.1423 432.503 53.9431 432.523 53.9311C432.55 53.9146 432.595 53.8908 432.692 53.8657C432.795 53.8387 433.012 53.7969 433.381 53.7969V33.7969ZM412.975 50.0547V103H432.975V50.0547H412.975ZM422.975 93H399.28V113H422.975V93ZM409.28 103V26.9219H389.28V103H409.28ZM399.28 36.9219H421.498V16.9219H399.28V36.9219ZM580.391 103L571.612 107.789C573.364 111.001 576.731 113 580.391 113V103ZM578.141 96.1797L587.91 94.0427C587.085 90.2714 584.163 87.3118 580.402 86.4388C576.642 85.5657 572.715 86.9352 570.312 89.9572L578.141 96.1797ZM541.578 97.9375L535.018 105.485C535.032 105.497 535.045 105.508 535.059 105.52L541.578 97.9375ZM543.195 62.8516L537.503 54.6296L543.195 62.8516ZM577.086 56.5234V66.5234C582.609 66.5234 587.086 62.0463 587.086 56.5234H577.086ZM559.578 50.3359V60.3359C565.101 60.3359 569.578 55.8588 569.578 50.3359H559.578ZM535.883 50.3359H525.883C525.883 55.8588 530.36 60.3359 535.883 60.3359V50.3359ZM545.234 32.4062L539.331 24.3345C539.322 24.3416 539.312 24.3486 539.302 24.3557L545.234 32.4062ZM600.852 52.0938H610.852C610.852 52.0369 610.851 51.9801 610.85 51.9233L600.852 52.0938ZM600.852 85.7734H590.852C590.852 85.8182 590.852 85.8629 590.852 85.9077L600.852 85.7734ZM604.086 101.805H614.086C614.086 100.102 613.651 98.4267 612.822 96.9389L604.086 101.805ZM604.086 103V113C609.609 113 614.086 108.523 614.086 103H604.086ZM572.867 85.6328L567.46 77.221C567.429 77.2409 567.398 77.2609 567.367 77.2811L572.867 85.6328ZM577.086 81.3438L585.924 86.0226C586.687 84.5811 587.086 82.9748 587.086 81.3438H577.086ZM577.086 69.1797H587.086C587.086 63.6568 582.609 59.1797 577.086 59.1797V69.1797ZM560 85.5625L553.168 92.8652C553.211 92.905 553.254 92.9445 553.297 92.9835L560 85.5625ZM589.17 98.2115C588.996 97.8926 588.49 96.6944 587.91 94.0427L568.372 98.3167C569.104 101.665 570.098 105.014 571.612 107.789L589.17 98.2115ZM570.312 89.9572C568.09 92.7536 565.045 94.4062 559.859 94.4062V114.406C570.33 114.406 579.473 110.574 585.969 102.402L570.312 89.9572ZM559.859 94.4062C554.862 94.4062 551.141 92.9716 548.098 90.3549L535.059 105.52C542.047 111.528 550.513 114.406 559.859 114.406V94.4062ZM548.138 90.3899C545.276 87.9023 544.055 85.1802 544.055 81.5547H524.055C524.055 91.0542 527.849 99.254 535.018 105.485L548.138 90.3899ZM544.055 81.5547C544.055 76.1528 545.829 73.1906 548.887 71.0735L537.503 54.6296C528.374 60.95 524.055 70.4566 524.055 81.5547H544.055ZM548.887 71.0735C552.604 68.5003 559.112 66.5234 569.773 66.5234V46.5234C557.184 46.5234 545.974 48.7653 537.503 54.6296L548.887 71.0735ZM569.773 66.5234H577.086V46.5234H569.773V66.5234ZM587.086 56.5234V52.5156H567.086V56.5234H587.086ZM587.086 52.5156C587.086 47.807 586.098 42.4085 582.379 38.1128C578.421 33.5414 572.986 32.0391 568.016 32.0391V52.0391C568.588 52.0391 568.646 52.1241 568.391 52.0261C568.257 51.9745 568.065 51.8825 567.847 51.7315C567.627 51.5791 567.426 51.398 567.258 51.2036C566.911 50.8024 566.863 50.5381 566.911 50.7049C566.968 50.9017 567.086 51.4586 567.086 52.5156H587.086ZM568.016 32.0391C563.704 32.0391 558.625 33.1004 554.676 36.983C550.697 40.8962 549.578 45.9859 549.578 50.3359H569.578C569.578 49.7713 569.653 49.6887 569.576 49.9165C569.482 50.1944 569.229 50.7221 568.699 51.2435C568.172 51.7615 567.663 51.9866 567.439 52.0602C567.261 52.1184 567.398 52.0391 568.016 52.0391V32.0391ZM559.578 40.3359H535.883V60.3359H559.578V40.3359ZM545.883 50.3359C545.883 46.3438 547.333 43.2812 551.166 40.4568L539.302 24.3557C530.667 30.7188 525.883 39.6094 525.883 50.3359H545.883ZM551.138 40.478C555.322 37.4179 561.1 35.5156 569.211 35.5156V15.5156C557.916 15.5156 547.709 18.2071 539.331 24.3345L551.138 40.478ZM569.211 35.5156C577.32 35.5156 582.449 37.4782 585.764 40.268L598.643 24.9664C590.707 18.2874 580.508 15.5156 569.211 15.5156V35.5156ZM585.764 40.268C588.892 42.9005 590.755 46.5099 590.853 52.2642L610.85 51.9233C610.667 41.1776 606.765 31.8026 598.643 24.9664L585.764 40.268ZM590.852 52.0938V85.7734H610.852V52.0938H590.852ZM590.852 85.9077C590.956 93.5978 592.118 100.869 595.35 106.671L612.822 96.9389C611.929 95.3343 610.935 91.9179 610.851 85.6392L590.852 85.9077ZM594.086 101.805V103H614.086V101.805H594.086ZM604.086 93H580.391V113H604.086V93ZM565.555 97.5312C569.914 97.5312 574.407 96.5922 578.367 93.9845L567.367 77.2811C567.483 77.2047 567.102 77.5312 565.555 77.5312V97.5312ZM578.275 94.0446C581.269 92.1194 584.072 89.5214 585.924 86.0226L568.248 76.6649C568.413 76.3536 568.402 76.615 567.46 77.221L578.275 94.0446ZM587.086 81.3438V69.1797H567.086V81.3438H587.086ZM577.086 59.1797H570.195V79.1797H577.086V59.1797ZM570.195 59.1797C564.779 59.1797 558.85 60.3719 554.234 64.5157C549.413 68.8437 547.82 74.7489 547.82 80.2891H567.82C567.82 79.3404 567.955 78.945 567.968 78.9096C567.972 78.8995 567.948 78.9663 567.875 79.076C567.8 79.1882 567.703 79.3012 567.594 79.3984C567.361 79.6081 567.282 79.5637 567.648 79.4543C568.049 79.3344 568.849 79.1797 570.195 79.1797V59.1797ZM547.82 80.2891C547.82 84.955 549.513 89.4456 553.168 92.8652L566.832 78.2598C567.099 78.5096 567.4 78.903 567.607 79.4047C567.807 79.8884 567.82 80.2308 567.82 80.2891H547.82ZM553.297 92.9835C556.861 96.2026 561.222 97.5312 565.555 97.5312V77.5312C565.405 77.5312 565.529 77.5106 565.819 77.6136C566.131 77.7241 566.448 77.9117 566.703 78.1415L553.297 92.9835ZM650.197 26.9219L660.16 26.059C659.712 20.8899 655.385 16.9219 650.197 16.9219V26.9219ZM650.97 35.8516L641.008 36.7145C641.364 40.8311 644.216 44.3044 648.184 45.4556C652.153 46.6068 656.42 45.1987 658.925 41.912L650.97 35.8516ZM690.416 32.6172L682.69 38.9662C682.702 38.9814 682.715 38.9965 682.727 39.0115L690.416 32.6172ZM696.533 53.9922H706.533C706.533 53.9429 706.532 53.8937 706.532 53.8444L696.533 53.9922ZM696.533 103V113C702.056 113 706.533 108.523 706.533 103H696.533ZM672.767 103H662.767C662.767 108.523 667.244 113 672.767 113V103ZM670.447 46.5391L662.813 52.9985C662.841 53.0311 662.869 53.0636 662.897 53.0959L670.447 46.5391ZM651.673 49.2812L643.157 44.0403C642.187 45.6164 641.673 47.4306 641.673 49.2812H651.673ZM651.673 103V113C657.196 113 661.673 108.523 661.673 103H651.673ZM627.978 103H617.978C617.978 108.523 622.455 113 627.978 113V103ZM627.978 26.9219V16.9219C622.455 16.9219 617.978 21.399 617.978 26.9219H627.978ZM640.234 27.7848L641.008 36.7145L660.933 34.9887L660.16 26.059L640.234 27.7848ZM658.925 41.912C662.143 37.6881 666.344 35.5156 672.697 35.5156V15.5156C660.581 15.5156 650.298 20.2338 643.016 29.7911L658.925 41.912ZM672.697 35.5156C678.572 35.5156 681.227 37.1857 682.69 38.9662L698.142 26.2682C691.823 18.5799 682.666 15.5156 672.697 15.5156V35.5156ZM682.727 39.0115C684.594 41.2562 686.41 45.7282 686.534 54.14L706.532 53.8444C706.375 43.2249 704.112 33.4469 698.104 26.2228L682.727 39.0115ZM686.533 53.9922V103H706.533V53.9922H686.533ZM696.533 93H672.767V113H696.533V93ZM682.767 103V54.9766H662.767V103H682.767ZM682.767 54.9766C682.767 50.1425 681.856 44.4254 677.997 39.9822L662.897 53.0959C662.486 52.6228 662.463 52.3383 662.545 52.6359C662.633 52.9548 662.767 53.6846 662.767 54.9766H682.767ZM678.081 40.0796C673.644 34.8365 667.041 33.7969 662.009 33.7969V53.7969C662.662 53.7969 663.157 53.8339 663.516 53.8814C663.876 53.9292 664.052 53.9815 664.086 53.9928C664.118 54.0031 663.973 53.9599 663.725 53.804C663.467 53.6418 663.137 53.3811 662.813 52.9985L678.081 40.0796ZM662.009 33.7969C654.235 33.7969 647.397 37.1494 643.157 44.0403L660.19 54.5222C660.348 54.2651 660.467 54.138 660.521 54.085C660.572 54.036 660.604 54.0164 660.632 54.0015C660.661 53.9863 661.014 53.7969 662.009 53.7969V33.7969ZM641.673 49.2812V103H661.673V49.2812H641.673ZM651.673 93H627.978V113H651.673V93ZM637.978 103V26.9219H617.978V103H637.978ZM627.978 36.9219H650.197V16.9219H627.978V36.9219Z" fill="black"/>
</svg>
