<svg width="282" height="400" viewBox="0 0 282 400" fill="none" xmlns="http://www.w3.org/2000/svg">
<path d="M226.228 259.801C226.534 264.93 225.689 270.061 223.753 274.82C222.908 277.15 221.76 279.359 220.34 281.391C218.439 284.215 216.073 286.697 213.342 288.729C197.679 299.072 179.452 304.862 160.692 305.455C154.718 305.967 148.318 306.223 141.236 306.223C134.153 306.223 127.753 305.967 121.78 305.455C103.019 304.862 84.7922 299.072 69.1291 288.729C66.3982 286.697 64.0321 284.215 62.1317 281.391C60.7113 279.359 59.5638 277.15 58.7184 274.82C56.7826 270.061 55.937 264.93 56.2437 259.801C56.9842 240.847 60.4915 222.104 66.6544 204.164C91.0151 210.338 116.116 213.095 141.236 212.356C166.356 213.095 191.456 210.338 215.817 204.164C221.98 222.104 225.487 240.847 226.228 259.801Z" fill="#E91E63"/>
<path d="M215.817 204.164C207.938 206.409 199.911 208.097 191.796 209.216C196.929 225.621 199.898 242.627 200.628 259.801C200.934 264.93 200.089 270.061 198.153 274.82C197.308 277.15 196.16 279.359 194.74 281.391C192.839 284.215 190.473 286.697 187.742 288.729C172.079 299.072 153.852 304.862 135.092 305.455C132.958 305.634 130.688 305.745 128.436 305.864C132.489 306.078 136.687 306.223 141.236 306.223C148.318 306.223 154.718 305.967 160.692 305.455C179.452 304.862 197.679 299.072 213.342 288.729C216.073 286.697 218.439 284.215 220.34 281.391C221.76 279.359 222.908 277.15 223.753 274.82C225.689 270.061 226.534 264.93 226.228 259.801C225.487 240.847 221.98 222.104 215.817 204.164Z" fill="#AD1457"/>
<path d="M226.228 259.801C226.534 264.93 225.689 270.061 223.753 274.82C222.908 277.15 221.76 279.359 220.34 281.391C218.439 284.215 216.073 286.697 213.342 288.729C197.679 299.072 179.452 304.862 160.692 305.455C154.718 305.967 148.318 306.223 141.236 306.223C134.153 306.223 127.753 305.967 121.78 305.455C103.019 304.862 84.7922 299.072 69.1291 288.729C66.3982 286.697 64.0321 284.215 62.1317 281.391C60.7113 279.359 59.5638 277.15 58.7184 274.82C56.7826 270.061 55.937 264.93 56.2437 259.801C56.9842 240.847 60.4915 222.104 66.6544 204.164C91.0151 210.338 116.116 213.095 141.236 212.356C166.356 213.095 191.456 210.338 215.817 204.164C221.98 222.104 225.487 240.847 226.228 259.801Z" stroke="black" stroke-width="15"/>
<path d="M149.769 255.023H132.702C127.99 255.023 124.169 258.843 124.169 263.556C124.169 268.269 127.99 272.089 132.702 272.089H149.769C154.482 272.089 158.302 268.269 158.302 263.556C158.302 258.843 154.482 255.023 149.769 255.023Z" fill="black"/>
<path d="M56.2437 259.801C55.937 264.93 56.7826 270.061 58.7184 274.82C33.289 290.18 20.233 283.268 13.4064 272.687C6.44959 260.957 6.19016 246.428 12.7237 234.457C20.075 219.014 30.773 205.401 44.041 194.607C51.1405 198.744 58.74 201.955 66.6544 204.164C60.4915 222.104 56.9842 240.847 56.2437 259.801Z" fill="#9D27B0" stroke="black" stroke-width="15"/>
<path d="M269.065 272.687C262.238 283.268 249.182 290.18 223.753 274.82C225.689 270.061 226.534 264.93 226.228 259.802C225.487 240.848 221.98 222.104 215.817 204.164C223.731 201.955 231.331 198.744 238.43 194.607C251.698 205.401 262.396 219.014 269.748 234.457C276.281 246.428 276.022 260.957 269.065 272.687Z" fill="#9D27B0"/>
<path d="M269.748 234.457C262.397 219.014 251.699 205.401 238.43 194.607C233.062 197.765 227.38 200.356 221.475 202.338C230.737 211.734 238.396 222.584 244.148 234.457C250.681 246.428 250.422 260.957 243.465 272.687C241.448 275.932 238.712 278.67 235.469 280.691C253.347 287.714 263.382 281.502 269.065 272.687C276.022 260.957 276.281 246.428 269.748 234.457Z" fill="#6A1B9A"/>
<path d="M269.065 272.687C262.238 283.268 249.182 290.18 223.753 274.82C225.689 270.061 226.534 264.93 226.228 259.802C225.487 240.848 221.98 222.104 215.817 204.164C223.731 201.955 231.331 198.744 238.43 194.607C251.698 205.401 262.396 219.014 269.748 234.457C276.281 246.428 276.022 260.957 269.065 272.687V272.687Z" stroke="black" stroke-width="15"/>
<path d="M121.78 305.455C120.841 341.38 114.441 363.14 108.041 375.94C103.524 385.39 94.024 391.448 83.5503 391.556C82.7245 391.57 81.8985 391.542 81.0757 391.471C67.5208 389.712 57.1706 378.499 56.4997 364.847C55.3409 336.906 57.2294 308.922 62.1317 281.391C64.032 284.215 66.3981 286.697 69.129 288.729C84.7921 299.072 103.019 304.862 121.78 305.455Z" fill="#3F51B5" stroke="black" stroke-width="15"/>
<path d="M225.972 364.847C225.301 378.499 214.951 389.712 201.396 391.471C200.573 391.542 199.747 391.57 198.921 391.556C188.447 391.448 178.948 385.39 174.43 375.94C168.03 363.14 161.63 341.38 160.692 305.455C179.452 304.862 197.679 299.072 213.342 288.729C216.073 286.697 218.439 284.215 220.34 281.391C225.242 308.922 227.13 336.906 225.972 364.847Z" fill="#3F51B5"/>
<path d="M220.34 281.391C218.439 284.215 216.073 286.697 213.342 288.729C208.346 292.348 202.895 295.292 197.129 297.485C200.431 319.777 201.518 342.341 200.372 364.847C199.747 374.519 194.359 383.249 185.993 388.143C189.94 390.366 194.391 391.541 198.921 391.556C199.747 391.57 200.573 391.542 201.396 391.471C214.95 389.712 225.301 378.499 225.972 364.847C227.13 336.906 225.242 308.922 220.34 281.391Z" fill="#283593"/>
<path d="M225.972 364.847C225.301 378.499 214.951 389.712 201.396 391.471C200.573 391.542 199.747 391.57 198.921 391.556C188.447 391.448 178.948 385.39 174.43 375.94C168.03 363.14 161.63 341.38 160.692 305.455C179.452 304.862 197.679 299.072 213.342 288.729C216.073 286.697 218.439 284.215 220.34 281.391C225.242 308.922 227.13 336.906 225.972 364.847V364.847Z" stroke="black" stroke-width="15"/>
<path d="M269.236 109.956C269.236 145.113 269.236 176.175 238.43 194.607C231.331 198.744 223.731 201.955 215.817 204.164C191.456 210.338 166.356 213.095 141.236 212.356C116.116 213.095 91.0151 210.338 66.6544 204.164C58.74 201.955 51.1405 198.744 44.0411 194.607C13.2357 176.175 13.2357 145.113 13.2357 109.956C13.2357 62.6815 53.2571 22.9161 107.614 11.1401C118.664 8.76448 129.934 7.56314 141.236 7.55612C147.252 7.54965 153.264 7.89155 159.241 8.58012C221.364 15.5775 269.236 58.2441 269.236 109.956Z" fill="#FFE0B2"/>
<path d="M159.241 8.58012C153.264 7.89155 147.252 7.54965 141.236 7.55612C137.182 7.55612 133.24 7.90599 129.289 8.20466C130.74 8.33266 132.207 8.40945 133.65 8.58012C195.764 15.5775 243.636 58.2441 243.636 109.956C243.636 145.113 243.636 176.175 212.83 194.607C205.731 198.744 198.131 201.955 190.217 204.164C170.046 209.443 149.286 212.138 128.436 212.185C132.566 212.288 136.807 212.356 141.236 212.356C166.356 213.095 191.456 210.338 215.817 204.164C223.731 201.955 231.331 198.744 238.43 194.607C269.236 176.175 269.236 145.113 269.236 109.956C269.236 58.2441 221.364 15.5775 159.241 8.58012Z" fill="#DFC49C"/>
<path d="M269.236 109.956C269.236 145.113 269.236 176.175 238.43 194.607C231.331 198.744 223.731 201.955 215.817 204.164C191.456 210.338 166.356 213.095 141.236 212.356C116.116 213.095 91.0151 210.338 66.6544 204.164C58.74 201.955 51.1405 198.744 44.0411 194.607C13.2357 176.175 13.2357 145.113 13.2357 109.956C13.2357 62.6815 53.2571 22.9161 107.614 11.1401C118.664 8.76448 129.934 7.56314 141.236 7.55612C147.252 7.54965 153.264 7.89155 159.241 8.58012C221.364 15.5775 269.236 58.2441 269.236 109.956Z" stroke="black" stroke-width="15"/>
<path d="M85.769 169.689C97.5511 169.689 107.102 160.138 107.102 148.356C107.102 136.574 97.5511 127.023 85.769 127.023C73.9869 127.023 64.4357 136.574 64.4357 148.356C64.4357 160.138 73.9869 169.689 85.769 169.689Z" fill="#3F51B5"/>
<path d="M196.702 169.689C208.484 169.689 218.036 160.138 218.036 148.356C218.036 136.574 208.484 127.023 196.702 127.023C184.92 127.023 175.369 136.574 175.369 148.356C175.369 160.138 184.92 169.689 196.702 169.689Z" fill="#3F51B5"/>
<path d="M55.9023 169.689C55.9023 174.402 59.7228 178.223 64.4357 178.223H107.102C111.815 178.223 115.636 174.402 115.636 169.689C115.601 166.873 114.151 164.262 111.779 162.743C114.272 158.356 115.6 153.403 115.636 148.356C115.636 131.861 102.264 118.489 85.769 118.489C69.2741 118.489 55.9023 131.861 55.9023 148.356C55.9377 153.403 57.2656 158.356 59.7594 162.743C57.3869 164.262 55.9374 166.873 55.9023 169.689ZM85.769 135.556C92.8383 135.556 98.569 141.287 98.569 148.356C98.569 155.425 92.8383 161.156 85.769 161.156C78.6998 161.156 72.969 155.425 72.969 148.356C72.969 141.287 78.6998 135.556 85.769 135.556Z" fill="black"/>
<path d="M166.836 169.689C166.836 174.402 170.656 178.223 175.369 178.223H218.036C222.749 178.223 226.569 174.402 226.569 169.689C226.534 166.873 225.085 164.262 222.712 162.743C225.206 158.356 226.534 153.403 226.569 148.356C226.569 131.861 213.197 118.489 196.702 118.489C180.208 118.489 166.836 131.861 166.836 148.356C166.871 153.403 168.199 158.356 170.693 162.743C168.32 164.262 166.871 166.873 166.836 169.689ZM196.702 135.556C203.772 135.556 209.502 141.287 209.502 148.356C209.502 155.425 203.772 161.156 196.702 161.156C189.633 161.156 183.902 155.425 183.902 148.356C183.902 141.287 189.633 135.556 196.702 135.556Z" fill="black"/>
</svg>
