<svg width="275" height="110" viewBox="0 0 275 110" fill="none" xmlns="http://www.w3.org/2000/svg">
<path d="M86.1016 24.6797H55.375V108H30.6953V24.6797H0.53125V5.625H86.1016V24.6797ZM133.056 40.0781C138.119 33.7031 144.588 30.5156 152.463 30.5156C160.853 30.5156 167.181 33 171.447 37.9688C175.713 42.9375 177.892 50.2734 177.986 59.9766V108H154.22V60.5391C154.22 56.5078 153.4 53.5547 151.759 51.6797C150.119 49.7578 147.33 48.7969 143.392 48.7969C138.517 48.7969 135.072 50.3438 133.056 53.4375V108H109.361V0H133.056V40.0781ZM242.378 109.406C230.706 109.406 221.261 105.938 214.042 99C206.823 92.0156 203.214 82.9453 203.214 71.7891V69.8203C203.214 62.0391 204.644 55.1719 207.503 49.2188C210.409 43.2656 214.628 38.6719 220.159 35.4375C225.691 32.1562 232.253 30.5156 239.847 30.5156C250.534 30.5156 258.972 33.8437 265.159 40.5C271.347 47.1094 274.441 56.3438 274.441 68.2031V77.4141H227.331C228.175 81.6797 230.027 85.0312 232.886 87.4688C235.745 89.9062 239.448 91.125 243.995 91.125C251.495 91.125 257.355 88.5 261.573 83.25L272.402 96.0469C269.448 100.125 265.253 103.383 259.816 105.82C254.425 108.211 248.613 109.406 242.378 109.406ZM239.706 48.7969C232.769 48.7969 228.644 53.3906 227.331 62.5781H251.238V60.75C251.331 56.9531 250.37 54.0234 248.355 51.9609C246.339 49.8516 243.456 48.7969 239.706 48.7969Z" fill="#3F51B5"/>
<path d="M86.1016 24.6797V34.6797C91.6244 34.6797 96.1016 30.2025 96.1016 24.6797H86.1016ZM55.375 24.6797V14.6797C49.8522 14.6797 45.375 19.1568 45.375 24.6797H55.375ZM55.375 108V118C60.8978 118 65.375 113.523 65.375 108H55.375ZM30.6953 108H20.6953C20.6953 113.523 25.1725 118 30.6953 118V108ZM30.6953 24.6797H40.6953C40.6953 19.1568 36.2182 14.6797 30.6953 14.6797V24.6797ZM0.53125 24.6797H-9.46875C-9.46875 30.2025 -4.9916 34.6797 0.53125 34.6797V24.6797ZM0.53125 5.625V-4.375C-4.9916 -4.375 -9.46875 0.102152 -9.46875 5.625H0.53125ZM86.1016 5.625H96.1016C96.1016 0.102152 91.6244 -4.375 86.1016 -4.375V5.625ZM86.1016 14.6797H55.375V34.6797H86.1016V14.6797ZM45.375 24.6797V108H65.375V24.6797H45.375ZM55.375 98H30.6953V118H55.375V98ZM40.6953 108V24.6797H20.6953V108H40.6953ZM30.6953 14.6797H0.53125V34.6797H30.6953V14.6797ZM10.5312 24.6797V5.625H-9.46875V24.6797H10.5312ZM0.53125 15.625H86.1016V-4.375H0.53125V15.625ZM76.1016 5.625V24.6797H96.1016V5.625H76.1016ZM133.056 40.0781H123.056C123.056 44.3316 125.747 48.1196 129.763 49.5203C133.779 50.9211 138.242 49.6279 140.887 46.2969L133.056 40.0781ZM177.986 59.9766H187.986C187.986 59.9444 187.986 59.9122 187.985 59.88L177.986 59.9766ZM177.986 108V118C183.509 118 187.986 113.523 187.986 108H177.986ZM154.22 108H144.22C144.22 113.523 148.697 118 154.22 118V108ZM151.759 51.6797L144.154 58.1723C144.18 58.2033 144.207 58.2341 144.234 58.2647L151.759 51.6797ZM133.056 53.4375L124.678 47.9787C123.62 49.6027 123.056 51.4992 123.056 53.4375H133.056ZM133.056 108V118C138.579 118 143.056 113.523 143.056 108H133.056ZM109.361 108H99.3609C99.3609 113.523 103.838 118 109.361 118V108ZM109.361 0V-10C103.838 -10 99.3609 -5.52285 99.3609 0H109.361ZM133.056 0H143.056C143.056 -5.52285 138.579 -10 133.056 -10V0ZM140.887 46.2969C144.127 42.2172 147.756 40.5156 152.462 40.5156V20.5156C141.419 20.5156 132.11 25.1891 125.225 33.8593L140.887 46.2969ZM152.462 40.5156C158.818 40.5156 162.001 42.3177 163.859 44.4826L179.034 31.4549C172.362 23.6823 162.889 20.5156 152.462 20.5156V40.5156ZM163.859 44.4826C166 46.9761 167.905 51.6265 167.986 60.0732L187.985 59.88C187.88 48.9204 185.425 38.8989 179.034 31.4549L163.859 44.4826ZM167.986 59.9766V108H187.986V59.9766H167.986ZM177.986 98H154.22V118H177.986V98ZM164.22 108V60.5391H144.22V108H164.22ZM164.22 60.5391C164.22 55.4923 163.252 49.6281 159.285 45.0946L144.234 58.2647C143.866 57.8446 143.871 57.6195 143.97 57.9772C144.076 58.358 144.22 59.1612 144.22 60.5391H164.22ZM159.365 45.1871C154.974 40.0432 148.626 38.7969 143.392 38.7969V58.7969C143.976 58.7969 144.41 58.8329 144.716 58.8765C145.022 58.9202 145.163 58.9665 145.18 58.9722C145.192 58.9763 145.065 58.934 144.859 58.7999C144.646 58.6611 144.394 58.4541 144.154 58.1723L159.365 45.1871ZM143.392 38.7969C136.346 38.7969 129.114 41.1695 124.678 47.9787L141.435 58.8963C141.435 58.8962 141.432 58.9007 141.426 58.909C141.419 58.9173 141.41 58.9285 141.399 58.9418C141.375 58.9695 141.345 58.9992 141.312 59.0274C141.238 59.09 141.2 59.1012 141.248 59.0797C141.366 59.0268 141.972 58.7969 143.392 58.7969V38.7969ZM123.056 53.4375V108H143.056V53.4375H123.056ZM133.056 98H109.361V118H133.056V98ZM119.361 108V0H99.3609V108H119.361ZM109.361 10H133.056V-10H109.361V10ZM123.056 0V40.0781H143.056V0H123.056ZM214.042 99L207.089 106.187C207.097 106.195 207.105 106.202 207.113 106.21L214.042 99ZM207.503 49.2188L198.517 44.8317C198.507 44.8508 198.498 44.87 198.489 44.8891L207.503 49.2188ZM220.159 35.4375L225.207 44.07C225.225 44.0594 225.243 44.0487 225.261 44.038L220.159 35.4375ZM265.159 40.5L257.835 47.3085C257.843 47.3171 257.851 47.3257 257.859 47.3342L265.159 40.5ZM274.441 77.4141V87.4141C279.963 87.4141 284.441 82.9369 284.441 77.4141H274.441ZM227.331 77.4141V67.4141C224.339 67.4141 221.504 68.754 219.605 71.066C217.705 73.378 216.941 76.4191 217.521 79.3545L227.331 77.4141ZM261.573 83.25L269.207 76.7906C267.279 74.5112 264.432 73.213 261.447 73.2508C258.461 73.2886 255.649 74.6586 253.778 76.9861L261.573 83.25ZM272.402 96.0469L280.501 101.912C283.199 98.1858 283.007 93.0994 280.035 89.5875L272.402 96.0469ZM259.816 105.82L263.87 114.962C263.882 114.956 263.894 114.951 263.906 114.945L259.816 105.82ZM227.331 62.5781L217.432 61.1639C217.022 64.0337 217.877 66.9401 219.777 69.1301C221.676 71.3201 224.432 72.5781 227.331 72.5781V62.5781ZM251.238 62.5781V72.5781C256.76 72.5781 261.237 68.101 261.237 62.5781H251.238ZM251.238 60.75L241.241 60.5032C241.239 60.5854 241.238 60.6677 241.238 60.75H251.238ZM248.355 51.9609L241.125 58.8695C241.151 58.8966 241.177 58.9235 241.203 58.9503L248.355 51.9609ZM242.378 99.4062C232.83 99.4062 226.02 96.6422 220.971 91.7899L207.113 106.21C216.501 115.233 228.583 119.406 242.378 119.406V99.4062ZM220.996 91.8132C215.949 86.9307 213.214 80.5662 213.214 71.7891H193.214C193.214 85.3244 197.698 97.1005 207.089 106.187L220.996 91.8132ZM213.214 71.7891V69.8203H193.214V71.7891H213.214ZM213.214 69.8203C213.214 63.2728 214.413 57.9302 216.517 53.5484L198.489 44.8891C194.875 52.4136 193.214 60.8054 193.214 69.8203H213.214ZM216.489 53.6058C218.561 49.3617 221.439 46.2735 225.207 44.07L215.112 26.805C207.817 31.0703 202.257 37.1696 198.517 44.8317L216.489 53.6058ZM225.261 44.038C228.989 41.8265 233.721 40.5156 239.847 40.5156V20.5156C230.785 20.5156 222.392 22.486 215.057 26.837L225.261 44.038ZM239.847 40.5156C248.289 40.5156 253.874 43.0475 257.835 47.3085L272.484 33.6915C264.069 24.64 252.78 20.5156 239.847 20.5156V40.5156ZM257.859 47.3342C261.828 51.574 264.441 58.0723 264.441 68.2031H284.441C284.441 54.6152 280.866 42.6448 272.46 33.6658L257.859 47.3342ZM264.441 68.2031V77.4141H284.441V68.2031H264.441ZM274.441 67.4141H227.331V87.4141H274.441V67.4141ZM217.521 79.3545C218.73 85.4664 221.562 90.956 226.399 95.0789L239.373 79.8586C238.491 79.1065 237.62 77.893 237.141 75.4736L217.521 79.3545ZM226.399 95.0789C231.428 99.3663 237.592 101.125 243.995 101.125V81.125C241.305 81.125 240.063 80.4462 239.373 79.8586L226.399 95.0789ZM243.995 101.125C254.135 101.125 263.02 97.4148 269.369 89.5139L253.778 76.9861C251.69 79.5852 248.856 81.125 243.995 81.125V101.125ZM253.94 89.7094L264.768 102.506L280.035 89.5875L269.207 76.7906L253.94 89.7094ZM264.302 90.1818C262.551 92.6002 259.859 94.8423 255.725 96.6952L263.906 114.945C270.648 111.923 276.346 107.65 280.501 101.912L264.302 90.1818ZM255.762 96.6789C251.72 98.4713 247.297 99.4062 242.378 99.4062V119.406C249.928 119.406 257.13 117.951 263.87 114.962L255.762 96.6789ZM239.706 38.7969C233.789 38.7969 228.174 40.878 223.969 45.5609C220.073 49.8997 218.236 55.5349 217.432 61.1639L237.231 63.9923C237.739 60.4338 238.621 59.1784 238.85 58.9234C238.897 58.8715 238.913 58.8634 238.897 58.8749C238.88 58.8869 238.864 58.8941 238.866 58.8936C238.869 58.8923 238.922 58.8699 239.048 58.8467C239.177 58.823 239.39 58.7969 239.706 58.7969V38.7969ZM227.331 72.5781H251.238V52.5781H227.331V72.5781ZM261.237 62.5781V60.75H241.238V62.5781H261.237ZM261.234 60.9968C261.373 55.3937 259.951 49.5194 255.507 44.9716L241.203 58.9503C241.068 58.8126 241.048 58.7078 241.085 58.8217C241.138 58.9835 241.266 59.491 241.241 60.5032L261.234 60.9968ZM255.585 45.0524C251.182 40.4445 245.366 38.7969 239.706 38.7969V58.7969C240.66 58.7969 241.118 58.9326 241.245 58.9791C241.304 59.0008 241.299 59.0052 241.255 58.9767C241.209 58.9471 241.161 58.9079 241.125 58.8695L255.585 45.0524Z" fill="black"/>
</svg>
